<svg xmlns="http://www.w3.org/2000/svg" version="1.1" xmlns:xlink="http://www.w3.org/1999/xlink" width="512" height="512" x="0" y="0" viewBox="0 0 413.761 413.761" style="enable-background:new 0 0 512 512" xml:space="preserve" class=""><g><path d="M342.04 21.12c-8.873-5.068-20.173-2.01-25.28 6.84a18.28 18.28 0 0 0-1.88 14.08 18.48 18.48 0 0 0 8.64 11.24 90.32 90.32 0 0 1 45.52 78.08v76.68h-12.56a38.719 38.719 0 0 0-10.72-21.92 97.184 97.184 0 0 0-22.16-16.72c-9.72-24.64-38.28-42.56-67.92-42.56h-80.8c-29.64 0-58.2 18-68 42.76a97.184 97.184 0 0 0-22.16 16.72A38.719 38.719 0 0 0 74 208.24H67.88c-6.627 0-12 5.373-12 12v12.2c0 6.627 5.373 12 12 12h5.88v4c-.006 28.318 22.648 51.434 50.96 52a4.612 4.612 0 0 0 0 .44 54.4 54.4 0 0 0 44.6 23.44h14.88a11.12 11.12 0 0 1 9.56 5.28c6.828 11.797 21.927 15.825 33.723 8.997a24.675 24.675 0 0 0 8.997-8.997 11.12 11.12 0 0 1 9.56-5.28h14.88a54.4 54.4 0 0 0 44.6-23.44c.074-.143.141-.29.2-.44 28.312-.566 50.966-23.682 50.96-52v-4h12.24v42.4c-.05 45.006-33.324 83.062-77.92 89.12L288.92 365a22.84 22.84 0 0 0 14.32-17.8 4.048 4.048 0 0 0-8-1.24c-1.179 8.021-8.638 13.568-16.659 12.389A14.682 14.682 0 0 1 268 351.16a4 4 0 1 0-6.919 4 22.88 22.88 0 0 0 19.68 11.32l1.92 10.24h-4c-10.228 0-18.52 8.292-18.52 18.52s8.292 18.52 18.52 18.52c70.228.199 127.321-56.571 127.52-126.799V131.36c-.153-45.571-24.612-87.597-64.161-110.24zM73.76 236.32l-.16.04h-5.72a4 4 0 0 1-4-4v-12.4a4 4 0 0 1 4-4h5.88v20.36zm101.12-101.48h80.8a68.957 68.957 0 0 1 56 29.24 124.829 124.829 0 0 0-36.52-8.48l-5.12-.4a52 52 0 0 0-28 6 57.359 57.359 0 0 1-53.32 0 52.483 52.483 0 0 0-28-6l-5.12.4a124.783 124.783 0 0 0-36.72 8.4 68.962 68.962 0 0 1 56-29.16zm86.16 181.56-14.8-.04a19.158 19.158 0 0 0-16.48 9.24c-4.567 7.975-14.734 10.738-22.709 6.171a16.64 16.64 0 0 1-6.171-6.171 19.158 19.158 0 0 0-16.48-9.24h-14.88a46.24 46.24 0 0 1-34.36-15.4l32.52 1.44a33.16 33.16 0 0 0 30.2-16.56l14.76-26.52a3.08 3.08 0 0 1 5.36 0l14.8 26.56a32.878 32.878 0 0 0 28.64 16.56h1.44l32.56-1.44a46.398 46.398 0 0 1-34.4 15.4zm87.84-68.04c0 24.301-19.699 44-44 44l-42.28 1.88a24.92 24.92 0 0 1-22.84-12.48L225 255.28a10.96 10.96 0 0 0-9.68-5.68 10.96 10.96 0 0 0-9.68 5.68l-14.76 26.56A25.16 25.16 0 0 1 168 294.36l-42.44-1.88c-24.301 0-44-19.699-44-44v-34.76a30.841 30.841 0 0 1 8.8-21.84c16-16.36 38.8-26.16 65.56-28.4l5.04-.4a44.757 44.757 0 0 1 24 5.12 65.28 65.28 0 0 0 60.76 0 43.997 43.997 0 0 1 23.76-5.12l5.04.4c26.76 2.24 49.44 12 65.56 28.4a30.841 30.841 0 0 1 8.8 21.84v34.64zm8-12v-20.32h12.24v20.32h-12.24zm41.32 50.48c-.154 65.632-53.368 118.774-119 118.84-5.81 0-10.52-4.71-10.52-10.52s4.71-10.52 10.52-10.52c54.006-.066 97.788-43.795 97.92-97.8V259.4h21.08v27.44zm0-35.44h-21.08v-45.8h21.08v45.8zm0-53.8h-21.08v-45.84h21.08v45.84zm-21.08-53.84v-12.4a98.4 98.4 0 0 0-49.52-85.04c-4.95-3.041-6.498-9.52-3.456-14.47a10.521 10.521 0 0 1 8.696-5.01 10.28 10.28 0 0 1 5.2 1.4c37.02 21.23 59.894 60.605 60 103.28l.16 12.24h-21.08z" fill="#4ad6d2" opacity="1" data-original="#000000" class=""></path><path d="M331.12 200.52c-13.84-14.24-33.84-22.8-57.6-24.76l-4.92-.4a32.325 32.325 0 0 0-17.28 3.8 78.682 78.682 0 0 1-72 0 32.008 32.008 0 0 0-17.28-3.8l-4.92.4c-23.76 1.96-43.76 10.52-57.8 24.76a18.96 18.96 0 0 0-5.24 13.2v33.88c.166 17.697 14.309 32.087 32 32.56l42.52 1.92h.44a12.878 12.878 0 0 0 11.2-6.4l18.64-32.36a19.32 19.32 0 0 1 16-10.08 18.12 18.12 0 0 1 16 9.12l19.2 33.32a12.92 12.92 0 0 0 11.68 6.4l42.6-1.92c17.7-.452 31.855-14.855 32-32.56v-33.88a18.956 18.956 0 0 0-5.24-13.2zm-2.56 47.24c-.17 13.438-10.964 24.321-24.4 24.6l-42.44 1.88a4.92 4.92 0 0 1-4.4-2.4l-19.24-33.48a25.96 25.96 0 0 0-22.76-13.12h-.24a27.361 27.361 0 0 0-23.04 14.08l-18.68 32.36a4.878 4.878 0 0 1-4.4 2.4l-42.76-1.92c-13.291-.428-23.878-11.263-24-24.56v-33.88a10.88 10.88 0 0 1 2.96-7.6c12.64-12.84 30.88-20.6 52.76-22.4l4.8-.36h1.6a24.72 24.72 0 0 1 11.4 2.96 86.722 86.722 0 0 0 79.48 0 24.005 24.005 0 0 1 12.92-2.88l4.84.36c21.88 1.8 40 9.56 52.76 22.4a10.88 10.88 0 0 1 2.96 7.6l-.12 33.96z" fill="#4ad6d2" opacity="1" data-original="#000000" class=""></path><path d="M306.56 214.84a4 4 0 0 0-5.64-.36l-19.68 16.36a4 4 0 0 0-.526 5.632l.006.008a4 4 0 0 0 3.08 1.4 4 4 0 0 0 2.56-.92l19.72-16.52a3.999 3.999 0 0 0 .48-5.6zM305.64 235.76a4.002 4.002 0 0 0-5.64-.48l.16.12-19.72 16.48a4 4 0 0 0-.483 5.636l.003.004a4 4 0 0 0 2.92 1.32 4 4 0 0 0 2.56-.92l19.72-16.52a4.002 4.002 0 0 0 .48-5.64zM156.22 203.54a4.018 4.018 0 0 0-5.66-.5h-.2l-19.48 16.52a4 4 0 0 0-.526 5.632l.006.008a4 4 0 0 0 5.636.483l.004-.003 19.72-16.48a4.018 4.018 0 0 0 .5-5.66zM155.36 224.48a4 4 0 0 0-5.621-.636c-.047.038-.094.076-.139.116l-6.72 5.8a4 4 0 0 0-.526 5.632l.006.008a4 4 0 0 0 3.08 1.44 3.996 3.996 0 0 0 2.56-.96l6.88-5.8a3.999 3.999 0 0 0 .48-5.6zM32.92 88.76c-14.006 0-25.36 11.354-25.36 25.36v.04c.022 13.99 11.37 25.32 25.36 25.32 14.006 0 25.36-11.354 25.36-25.36S46.926 88.76 32.92 88.76zm0 42.76c-9.588 0-17.36-7.772-17.36-17.36S23.332 96.8 32.92 96.8s17.36 7.772 17.36 17.36-7.772 17.36-17.36 17.36zM88.64 0C70.38.022 55.582 14.82 55.56 33.08c0 18.27 14.81 33.08 33.08 33.08s33.08-14.81 33.08-33.08S106.91 0 88.64 0zm0 58.16c-13.851 0-25.08-11.229-25.08-25.08S74.789 8 88.64 8c13.842.022 25.058 11.238 25.08 25.08 0 13.851-11.228 25.08-25.08 25.08zM23.24 16.28c-7.488-.505-13.984 5.117-14.56 12.6-.527 7.495 5.107 14.006 12.6 14.56l1 .04c7.128-.023 13.037-5.531 13.56-12.64.528-7.495-5.106-14.006-12.6-14.56zm-1.192 19.104a5.597 5.597 0 0 1-3.887-1.944 5.519 5.519 0 0 1-1.52-3.96 5.64 5.64 0 0 1 5.6-5.24h.4a5.283 5.283 0 0 1 4 1.92 5.397 5.397 0 0 1 1.36 4 5.602 5.602 0 0 1-5.953 5.224zM83.64 133.6h-.08c-7.511 0-13.6 6.089-13.6 13.6-.022 7.533 6.067 13.658 13.6 13.68 7.533.022 13.658-6.067 13.68-13.6.022-7.533-6.067-13.658-13.6-13.68zm-.04 19.28a5.64 5.64 0 1 1-.08-11.28h.04a5.64 5.64 0 0 1 .04 11.28z" fill="#4ad6d2" opacity="1" data-original="#000000" class=""></path></g></svg>